<?xml version="1.0" encoding="utf-8"?>
<!-- Generator: Adobe Illustrator 19.2.0, SVG Export Plug-In . SVG Version: 6.00 Build 0)  -->
<svg version="1.1" xmlns="http://www.w3.org/2000/svg" xmlns:xlink="http://www.w3.org/1999/xlink" x="0px" y="0px"
	 viewBox="0 0 420.7 420.7" enable-background="new 0 0 420.7 420.7" xml:space="preserve">
<g id="Layer_3">
	<circle fill="#ED1C24" cx="210.4" cy="210.4" r="210.4"/>
</g>
<g id="Layer_1">
	<g id="XMLID_1_">
		<g>
			<path fill="#FFFFFF" d="M337.5,250.6c0,70.2-56.9,127.2-127.2,127.2S83.2,320.9,83.2,250.6c0-85.7,117.2-180.6,127.2-207.7
				C211.2,40.6,337.5,139.7,337.5,250.6z"/>
		</g>
		<g>
		</g>
	</g>
</g>
<g id="Layer_2">
	<line fill="#ED1C24" stroke="#000000" stroke-linecap="round" stroke-miterlimit="10" x1="220.7" y1="264" x2="221.2" y2="258"/>
	<path fill="#ED1C24" d="M134,234.1v55.2c0,1.1,0.9,2,2,2h151.4c1.1,0,2-0.9,2-2v-55.2c0-1.1-0.9-2-2-2H136.1
		C134.9,232.1,134,233,134,234.1z"/>
	<path fill="#ED1C24" d="M239.4,339.5h-55.2c-1.1,0-2-0.9-2-2V186.1c0-1.1,0.9-2,2-2h55.2c1.1,0,2,0.9,2,2v151.4
		C241.4,338.6,240.5,339.5,239.4,339.5z"/>
</g>
</svg>
