<?xml version="1.0" encoding="utf-8"?>
<!-- Generator: Adobe Illustrator 19.2.0, SVG Export Plug-In . SVG Version: 6.00 Build 0)  -->
<svg version="1.1" xmlns="http://www.w3.org/2000/svg" xmlns:xlink="http://www.w3.org/1999/xlink" x="0px" y="0px"
	 viewBox="0 0 64 90" enable-background="new 0 0 64 90" xml:space="preserve">
<g id="red_maker_house" xmlns:cc="http://creativecommons.org/ns#" xmlns:dc="http://purl.org/dc/elements/1.1/" xmlns:inkscape="http://www.inkscape.org/namespaces/inkscape" xmlns:rdf="http://www.w3.org/1999/02/22-rdf-syntax-ns#" xmlns:sodipodi="http://sodipodi.sourceforge.net/DTD/sodipodi-0.dtd" xmlns:svg="http://www.w3.org/2000/svg" display="none">
	<g transform="translate(0,-952.36216)" display="inline">
		<path fill="#ED1C24" d="M32,952.4c-17.7,0-32,14.3-32,32c0,17.7,33,58,33,58s31-40.3,31-58S49.7,952.4,32,952.4L32,952.4z
			 M32,958.9c14.1,0,25.5,11.4,25.5,25.5c0,14.1-11.4,25.5-25.5,25.5c-14.1,0-25.5-11.4-25.5-25.5C6.5,970.3,17.9,958.9,32,958.9z"
			/>
		<path fill="#ED1C24" d="M49.7,984.4 M32,1002.1 M14.3,984.4 M32,966.7"/>
	</g>
	<circle display="inline" fill="#ED1C24" cx="32" cy="32" r="26.5"/>
	<g display="inline">
		<g transform="translate(-362.000000, -221.000000)">
			<g transform="translate(362.000000, 221.000000)">
				<path fill="#FFFFFF" d="M53.1,26.7c1.3,1.2,0.9,2.2-0.9,2.2H12.9c-1.8,0-2.2-1-0.9-2.2L30.2,9.4c1.3-1.2,3.4-1.2,4.6,0
					L53.1,26.7z"/>
				<path fill="#FFFFFF" d="M38.3,52.5h7.2c1.3,0,2.4-1.1,2.4-2.4V24.3c0-1.3-1.1-2.4-2.4-2.4H20c-1.3,0-2.4,1.1-2.4,2.4v25.7
					c0,1.3,1.1,2.4,2.4,2.4h7.2V40.4c0-1.3,1.1-2.4,2.4-2.4h6.4c1.3,0,2.4,1.1,2.4,2.4V52.5z"/>
			</g>
		</g>
	</g>
	<rect x="24.4" y="36.2" display="inline" fill="#FFFFFF" width="16.3" height="16.3"/>
	<g display="inline">
		<path fill="#ED1C24" d="M32.7,45c4.1,0,7.3-3.3,7.3-7.3s-7.3-13.2-7.3-13.2s-7.3,9.2-7.3,13.2S28.7,45,32.7,45z"/>
	</g>
</g>
<g id="red_marker_mobile" display="none">
	<g transform="translate(0,-952.36216)" display="inline">
		<path fill="#ED1C24" d="M32,952.4c-17.7,0-32,14.3-32,32c0,17.7,33,58,33,58s31-40.3,31-58S49.7,952.4,32,952.4L32,952.4z
			 M32,958.9c14.1,0,25.5,11.4,25.5,25.5c0,14.1-11.4,25.5-25.5,25.5c-14.1,0-25.5-11.4-25.5-25.5C6.5,970.3,17.9,958.9,32,958.9z"
			/>
		<path fill="#ED1C24" d="M49.7,984.4 M32,1002.1 M14.3,984.4 M32,966.7"/>
	</g>
	<circle display="inline" fill="#ED1C24" cx="32" cy="32" r="26.5"/>
	<g display="inline">
		<path fill="#FFFFFF" d="M20.8,49.7c3.2,0,5.8-2.6,6.1-5.8h12.7c0.3,3.2,2.9,5.8,6.1,5.8s5.8-2.6,6.1-5.8h4.4V42v-1.9V21
			c0-2.1-1.7-3.9-3.7-3.9H25.6c-2,0-3.7,1.7-3.7,3.9v0.2h-5.7c-2.1,0-4,1.2-4.9,3.1L8.1,31l0,0c-0.1,0.3-0.2,0.6-0.2,0.9v8.2v2.1V44
			h6.9C15,47.1,17.7,49.7,20.8,49.7z M45.7,40.7c1.3,0,2.4,1.2,2.4,2.6c0,1.4-1.1,2.6-2.4,2.6s-2.4-1.2-2.4-2.6
			C43.2,41.9,44.3,40.7,45.7,40.7z M23.3,43.3c0,1.4-1.1,2.6-2.4,2.6s-2.4-1.2-2.4-2.6c0-1.4,1.1-2.6,2.4-2.6S23.3,41.9,23.3,43.3z
			 M14.6,26c0.3-0.6,0.9-1,1.7-1h5.7v4.9h-9.2L14.6,26z"/>
	</g>
	<g display="inline">
		<path fill="#ED1C24" d="M32.9,40.7c4.1,0,7.3-3.3,7.3-7.3s-7.3-13.2-7.3-13.2s-7.3,9.2-7.3,13.2S28.9,40.7,32.9,40.7z"/>
	</g>
</g>
<g id="white_marker_mobile">
	<g transform="translate(0,-952.36216)">
		<path fill="#FFFFFF" d="M32,952.4c-17.7,0-32,14.3-32,32c0,17.7,33,58,33,58s31-40.3,31-58S49.7,952.4,32,952.4L32,952.4z
			 M32,958.9c14.1,0,25.5,11.4,25.5,25.5c0,14.1-11.4,25.5-25.5,25.5c-14.1,0-25.5-11.4-25.5-25.5C6.5,970.3,17.9,958.9,32,958.9z"
			/>
		<path fill="#FFFFFF" d="M49.7,984.4 M32,1002.1 M14.3,984.4 M32,966.7"/>
	</g>
	<circle fill="#FFFFFF" cx="32" cy="32" r="26.5"/>
	<g>
		<path fill="#ED1C24" d="M20.8,49.7c3.2,0,5.8-2.6,6.1-5.8h12.7c0.3,3.2,2.9,5.8,6.1,5.8s5.8-2.6,6.1-5.8h4.4V42v-1.9V21
			c0-2.1-1.7-3.9-3.7-3.9H25.6c-2,0-3.7,1.7-3.7,3.9v0.2h-5.7c-2.1,0-4,1.2-4.9,3.1L8.1,31l0,0c-0.1,0.3-0.2,0.6-0.2,0.9v8.2v2.1V44
			h6.9C15,47.1,17.7,49.7,20.8,49.7z M45.7,40.7c1.3,0,2.4,1.2,2.4,2.6c0,1.4-1.1,2.6-2.4,2.6s-2.4-1.2-2.4-2.6
			C43.2,41.9,44.3,40.7,45.7,40.7z M23.3,43.3c0,1.4-1.1,2.6-2.4,2.6s-2.4-1.2-2.4-2.6c0-1.4,1.1-2.6,2.4-2.6S23.3,41.9,23.3,43.3z
			 M14.6,26c0.3-0.6,0.9-1,1.7-1h5.7v4.9h-9.2L14.6,26z"/>
	</g>
	<g>
		<path fill="#FFFFFF" d="M32.9,40.7c4.1,0,7.3-3.3,7.3-7.3s-7.3-13.2-7.3-13.2s-7.3,9.2-7.3,13.2S28.9,40.7,32.9,40.7z"/>
	</g>
</g>
</svg>
