<?xml version="1.0" encoding="utf-8"?>
<!-- Generator: Adobe Illustrator 19.2.0, SVG Export Plug-In . SVG Version: 6.00 Build 0)  -->
<svg version="1.1" xmlns="http://www.w3.org/2000/svg" xmlns:xlink="http://www.w3.org/1999/xlink" x="0px" y="0px"
	 viewBox="0 0 612 792" enable-background="new 0 0 612 792" xml:space="preserve">
<g id="Icon_color" display="none">
	<circle display="inline" fill="#ED1C24" cx="329.4" cy="417.2" r="210.4"/>
	<g id="XMLID_2_" display="inline">
		<g>
			<path fill="#FFFFFF" d="M456.6,457.5c0,70.2-56.9,127.2-127.2,127.2s-127.2-56.9-127.2-127.2c0-85.7,117.2-180.6,127.2-207.7
				C330.3,247.4,456.6,346.6,456.6,457.5z"/>
		</g>
		<g>
		</g>
	</g>
	<g display="inline">
		<path fill="#ED1C24" d="M253.1,441v55.2c0,1.1,0.9,2,2,2h151.4c1.1,0,2-0.9,2-2V441c0-1.1-0.9-2-2-2H255.1
			C254,439,253.1,439.9,253.1,441z"/>
		<path fill="#ED1C24" d="M358.4,546.4h-55.2c-1.1,0-2-0.9-2-2V393c0-1.1,0.9-2,2-2h55.2c1.1,0,2,0.9,2,2v151.4
			C360.5,545.5,359.5,546.4,358.4,546.4z"/>
	</g>
</g>
<g id="Icon_notification">
	<path fill="#FFFFFF" d="M329.4,206.9c-116.2,0-210.4,94.2-210.4,210.4s94.2,210.4,210.4,210.4s210.4-94.2,210.4-210.4
		S445.6,206.9,329.4,206.9z M329.4,584.7c-70.2,0-127.2-56.9-127.2-127.2c0-85.7,117.2-180.6,127.2-207.7
		c0.9-2.4,127.2,96.8,127.2,207.7C456.6,527.8,399.7,584.7,329.4,584.7z"/>
	<g>
		<path fill="#FFFFFF" d="M253.1,441v55.2c0,1.1,0.9,2,2,2h151.4c1.1,0,2-0.9,2-2V441c0-1.1-0.9-2-2-2H255.1
			C254,439,253.1,439.9,253.1,441z"/>
		<path fill="#FFFFFF" d="M358.4,546.4h-55.2c-1.1,0-2-0.9-2-2V393c0-1.1,0.9-2,2-2h55.2c1.1,0,2,0.9,2,2v151.4
			C360.5,545.5,359.5,546.4,358.4,546.4z"/>
	</g>
</g>
</svg>
